# xmcd
#
# Track frame offsets:
# 182
# 14552
# 33990
# 50270
# 68287
# 84120
# 101600
# 117462
# 131150
# 156127
#
# Disc length: 2498 seconds
#
#
# Revision: 1
# Processed by: cddbd v1.5.1PL2 Copyright (c) Steve Scherf et al.
# Submitted via: FreeRIP 2.941 
#
DISCID=7609c00a
DTITLE=Screamin' Jay Hawkins - Somethin' Funny Goin' On
DYEAR=1994
DGENRE=Blues
TTITLE0=Somethin' Funny Goin'on
TTITLE1=I Am The Cool
TTITLE2=Whistling Past the Graveyard
TTITLE3=Rock The House
TTITLE4=Scream The Blues
TTITLE5=Brujo
TTITLE6=You Make me Sick
TTITLE7=Give It A Break
TTITLE8=When You Walked Out The Door
TTITLE9=Fourteen Wives
EXTD=YEAR: 1994
EXTT0=
EXTT1=
EXTT2=
EXTT3=
EXTT4=
EXTT5=
EXTT6=
EXTT7=
EXTT8=
EXTT9=
PLAYORDER=
